<svg xmlns="http://www.w3.org/2000/svg" xmlns:xlink="http://www.w3.org/1999/xlink" width="30" height="20" viewBox="0 0 30 20">
  <defs>
    <rect id="ksaflag-a" width="30" height="20" rx="2.5"/>
  </defs>
  <g fill="none" fill-rule="evenodd">
    <mask id="ksaflag-b" fill="#fff">
      <use xlink:href="#ksaflag-a"/>
    </mask>
    <use fill="#D8D8D8" xlink:href="#ksaflag-a"/>
    <g mask="url(#ksaflag-b)">
      <rect width="30" height="20" fill="#006C35" fill-rule="nonzero"/>
      <path fill="#FFF" d="M12.9312,4.7236 C12.915688,4.72314 12.8924812,4.731798 12.859952,4.7511 C12.786816,4.800124 12.641888,4.951124 12.637452,5.124852 C12.6330172,5.222864 12.6145168,5.22248 12.6787,5.284852 C12.725064,5.3517 12.771372,5.345128 12.864948,5.296102 C12.918692,5.2565104 12.936844,5.231254 12.954948,5.164854 C12.9772432,5.053498 12.837768,5.217542 12.819948,5.093606 C12.788782,4.978542 12.87782,4.931214 12.962448,4.819854 C12.964388,4.76741 12.965324,4.724614 12.931198,4.723606 L12.9312,4.7236 Z M14.29368,4.7311 C14.267542,4.73462 14.235568,4.768106 14.19118,4.8486 C14.1593696,4.932904 14.02216,5.060488 14.12118,5.3236 C14.202176,5.490432 14.235448,5.76156 14.19868,6.0636 C14.14256,6.149436 14.12976,6.179016 14.05618,6.264848 C13.952808,6.376004 13.840848,6.347584 13.754932,6.306096 C13.67466,6.251992 13.61158,6.22422 13.574932,6.052344 C13.5815444,5.778388 13.5975064,5.329984 13.547432,5.234824 C13.473612,5.087464 13.35194,5.140312 13.299932,5.184824 C13.050044,5.413304 12.926616,5.799104 12.851172,6.106064 C12.781868,6.329784 12.70802,6.265084 12.656172,6.174816 C12.52994,6.056524 12.521072,5.131496 12.368672,5.283576 C12.124588,5.981176 12.508744,6.745376 12.774912,6.671096 C12.966944,6.7506 13.088792,6.385076 13.167412,5.984856 C13.221196,5.872532 13.262296,5.85962 13.289912,5.917356 C13.2828156,6.449596 13.3280744,6.568316 13.464912,6.729836 C13.770156,6.965332 14.022632,6.759672 14.042432,6.739836 C14.0622284,6.72004 14.279932,6.502336 14.279932,6.502336 C14.332828,6.446696 14.402724,6.443312 14.477432,6.492336 C14.550044,6.558336 14.54072,6.672024 14.696184,6.751088 C14.827016,6.80342 15.106384,6.7638156 15.171184,6.651088 C15.258392,6.501632 15.279536,6.450276 15.319936,6.393588 C15.382184,6.310736 15.488688,6.34742 15.488688,6.373588 C15.4787696,6.419792 15.416192,6.465372 15.458688,6.548588 C15.532712,6.604104 15.549904,6.5684252 15.593688,6.556088 C15.748548,6.482064 15.864936,6.146088 15.864936,6.146088 C15.8717896,6.02078 15.800496,6.030284 15.754936,6.056088 C15.695508,6.092414 15.691864,6.10476 15.632436,6.141088 C15.55672,6.1523368 15.410048,6.202284 15.337436,6.08984 C15.263292,5.954656 15.262872,5.766192 15.206188,5.62984 C15.206188,5.619922 15.107128,5.415444 15.198688,5.40234 C15.244892,5.4109276 15.344256,5.4366036 15.359936,5.353588 C15.4084,5.272672 15.255368,5.043128 15.151184,4.927348 C15.060752,4.828088 14.935888,4.815988 14.814936,4.917348 C14.730228,4.99528 14.742796,5.082316 14.726184,5.164848 C14.704614,5.259636 14.7087368,5.37704 14.804936,5.502348 C14.88948,5.66906 15.043076,5.882952 14.992436,6.184828 C14.992436,6.184828 14.903184,6.328496 14.746188,6.309828 C14.680752,6.2955556 14.574124,6.267236 14.517436,5.848588 C14.47454,5.531692 14.5281848,5.087708 14.393684,4.879828 C14.3633196,4.801384 14.337248,4.725212 14.293684,4.731076 L14.29368,4.7311 Z M13.86248,4.7647 C13.821796,4.768252 13.776728,4.81564 13.73998,4.9072 C13.7084516,4.976828 13.66994,5.34096 13.676228,5.34096 C13.6510696,5.449332 13.78946,5.495256 13.852476,5.35596 C13.94694,5.100588 13.947396,4.991792 13.953724,4.88348 C13.939008,4.800972 13.90316,4.761176 13.862476,4.764728 L13.86248,4.7647 Z M15.45496,4.79345 C15.413172,4.797238 15.379888,4.821704 15.36746,4.88345 C15.3508084,5.028634 15.359318,5.107578 15.38371,5.22845 C15.4024176,5.309046 15.519726,5.443986 15.577462,5.522202 C15.853302,5.892978 16.118702,6.265522 16.374982,6.650962 C16.41527,6.937162 16.44479,7.217122 16.463734,7.495962 C16.505262,8.107322 16.517882,8.868362 16.479984,9.512202 C16.594528,9.516718 16.778056,9.327246 16.842484,9.049722 C16.884372,8.665818 16.8275644,7.882522 16.823734,7.655962 C16.821034,7.561906 16.8152444,7.449682 16.808734,7.33221 C17.106842,7.81937 17.396054,8.33549 17.679974,8.90221 C17.78347,8.853022 17.76053,8.27029 17.699974,8.18845 C17.472746,7.69937 17.158814,7.21661 17.058734,7.03093 C17.0226096,6.963878 16.899562,6.776742 16.753734,6.56093 C16.7268852,6.25299 16.69771,5.99217 16.678734,5.91341 C16.631846,5.587886 16.812522,5.95012 16.787486,5.76091 C16.728862,5.43583 16.549434,5.21491 16.337486,4.91715 C16.269146,4.820306 16.270498,4.800554 16.164986,4.9409 C16.101922,5.083972 16.102774,5.203004 16.121234,5.314652 C16.0934816,5.27432 16.059178,5.226496 16.009986,5.167152 C15.826946,5.010116 15.815654,5.001532 15.663738,4.8734 C15.615834,4.8394072 15.524634,4.787084 15.454986,4.7934 L15.45496,4.79345 Z M20.17496,4.842202 C20.1546096,4.839038 20.132436,4.8490416 20.10746,4.885954 C20.059724,4.927802 20.008388,5.003586 20.00996,5.100954 C20.0215708,5.272506 20.0521,5.448154 20.063712,5.619714 C20.0678036,5.6426708 20.07212,5.665506 20.076212,5.688466 C20.0577796,5.6649448 20.0416864,5.64659 20.03246,5.637218 C19.698068,5.28593 20.1861,5.579806 19.968708,5.308466 C19.78486,5.106598 19.731068,5.042362 19.573708,4.920966 C19.494804,4.869966 19.447132,4.772518 19.421208,4.938466 C19.4108872,5.084254 19.4001608,5.253078 19.409958,5.375986 C19.409394,5.444282 19.480126,5.57285 19.541206,5.648486 C19.764278,5.922554 19.992126,6.214166 20.221206,6.518486 C20.269414,7.139126 20.28227,7.708046 20.331206,8.329726 C20.324272,8.595618 20.242486,8.948766 20.164958,8.982206 C20.164958,8.982206 20.046562,9.050222 19.967458,8.974706 C19.909926,8.951604 19.679958,8.590954 19.679958,8.590954 C19.56223,8.483026 19.483738,8.513866 19.399958,8.590954 C19.168938,8.81403 19.064454,9.231874 18.907478,9.519714 C18.866998,9.583938 18.752986,9.63861 18.62623,9.514714 C18.304294,9.074874 18.492554,8.448794 18.452478,8.609714 C18.165738,8.932858 18.292726,9.468314 18.357478,9.583474 C18.452022,9.772602 18.52851,9.893686 18.712478,9.987234 C18.880038,10.110566 19.01051,10.033594 19.082478,9.947234 C19.251086,9.772498 19.253334,9.325634 19.332478,9.237234 C19.387994,9.074834 19.527126,9.102766 19.594978,9.174734 C19.660738,9.269278 19.738378,9.33079 19.834978,9.382234 C19.992254,9.520966 20.179962,9.54617 20.364978,9.419734 C20.491414,9.348814 20.573454,9.256646 20.647478,9.074734 C20.726902,8.86231 20.68763,7.749054 20.669978,7.129734 C20.788762,7.297058 20.906002,7.468006 21.022478,7.640974 C21.073606,8.184614 21.096806,8.720014 21.079978,9.233454 C21.0679224,9.335538 21.436226,8.92867 21.43373,8.735934 C21.43207,8.567302 21.43405,8.41447 21.43373,8.272174 C21.61237,8.557398 21.78529,8.847374 21.94873,9.140934 C22.05001,9.08727 22.015294,8.513814 21.95123,8.434694 C21.780106,8.14755 21.560962,7.837254 21.39123,7.597174 C21.3576844,7.294178 21.31201,6.936694 21.29123,6.827174 C21.258854,6.65639 21.226426,6.399854 21.177478,6.197174 C21.1640512,6.11803 21.123526,5.865234 21.13623,5.840926 C21.1561872,5.784362 21.231598,5.842734 21.26873,5.777174 C21.324326,5.716578 21.076014,5.073254 20.949978,4.889654 C20.904662,4.807366 20.822706,4.835842 20.721226,4.969654 C20.627122,5.057706 20.661554,5.25859 20.697476,5.449654 C20.790784,5.936614 20.874072,6.432534 20.939976,6.927174 C20.817972,6.745802 20.669076,6.526334 20.522456,6.314694 C20.518516,6.2942836 20.503706,6.219482 20.503706,6.218446 C20.5037052,6.2096968 20.4835024,5.820086 20.466206,5.727206 C20.463182,5.6895088 20.4541948,5.678658 20.493706,5.683454 C20.535598,5.7186916 20.54129,5.7205924 20.567458,5.732206 C20.60975,5.7399468 20.64673,5.668446 20.62121,5.602206 C20.490378,5.360906 20.359538,5.118526 20.22871,4.877206 C20.212966,4.8617036 20.1953104,4.8453708 20.174958,4.842206 L20.17496,4.842202 Z M7.99376,4.854702 C7.921268,4.85263 7.841288,4.897566 7.872512,4.984702 C7.8543288,5.032194 8.014412,5.192738 8.042512,5.28095 C8.0677104,5.343766 8.0175188,5.546034 8.070012,5.564702 C8.118272,5.5856268 8.184732,5.424682 8.210012,5.27595 C8.224002,5.19447 8.213416,4.915622 8.023764,4.85843 C8.0140476,4.856234 8.00412,4.854978 7.993764,4.854682 L7.99376,4.854702 Z M21.87016,4.856302 C21.8536352,4.857942 21.8335104,4.8846468 21.80266,4.950054 C21.728476,5.07157 21.702948,5.28915 21.73266,5.481294 C21.911268,6.689414 22.043996,7.859254 22.071412,8.930054 C22.0560512,9.031694 22.0515672,9.085758 22.003912,9.213806 C21.89848,9.34895 21.782204,9.518374 21.672664,9.600054 C21.56316,9.681698 21.330112,9.759538 21.253904,9.820054 C21.01216,9.959794 21.010944,10.120498 21.206404,10.126302 C21.543256,10.0871944 21.941844,10.059558 22.216404,9.645062 C22.289864,9.52891 22.376364,9.214022 22.380156,9.021302 C22.4058376,7.891422 22.3656988,6.786662 22.196404,5.970062 C22.1855588,5.890514 22.150436,5.707678 22.163904,5.683814 C22.1857156,5.627894 22.295924,5.6894108 22.335152,5.625062 C22.392728,5.566278 22.050136,5.127622 21.930152,4.940062 C21.9061808,4.892958 21.891398,4.854202 21.870152,4.85631 L21.87016,4.856302 Z M18.33768,4.875052 C18.3237704,4.877452 18.3032344,4.898622 18.26518,4.948804 C18.17108,5.256468 18.138008,5.507724 18.173932,5.698804 C18.415636,6.960164 18.663292,8.109324 18.623932,9.31004566 C18.738556,9.310808 18.871076,9.047832 18.927684,8.787564 C18.958688,8.42902 18.9069976,8.210804 18.897684,8.000044 C18.8884116,7.789304 18.659128,6.079484 18.612684,5.920044 C18.556644,5.618548 18.835624,5.8803848 18.805184,5.705044 C18.708744,5.483984 18.468036,5.162084 18.392704,4.970044 C18.3643808,4.918612 18.3608868,4.871044 18.337704,4.875044 L18.33768,4.875052 Z M9.73648,4.898802 C9.706776,4.9039476 9.678112,4.9284244 9.667728,4.968802 C9.6611964,4.9952504 9.6791768,5.039246 9.655228,5.052554 C9.64148,5.0664232 9.5893,5.0571012 9.591476,4.983802 C9.591476,4.9604584 9.5743376,4.936098 9.563976,4.921302 C9.553574,4.9144884 9.5465544,4.912552 9.527726,4.912552 C9.5047852,4.91348 9.5053052,4.91953 9.492726,4.938802 C9.487126,4.958402 9.479926,4.977602 9.479926,5.000002 C9.477062,5.0260876 9.4666168,5.034922 9.447426,5.038752 C9.4259768,5.038752 9.4310532,5.041088 9.413676,5.030002 C9.4033548,5.0187132 9.391176,5.014274 9.391176,4.995002 C9.391176,4.9750452 9.3859332,4.943186 9.379926,4.930002 C9.3708148,4.9179876 9.356416,4.9117352 9.339926,4.907502 C9.250058,4.907822 9.243514,5.011094 9.248678,5.050002 C9.2419452,5.0573396 9.2386128,5.24037 9.361178,5.29125 C9.525714,5.369706 9.834258,5.336538 9.821178,5.07125 C9.8211784,5.0477852 9.8160164,4.96899 9.813678,4.947498 C9.7968856,4.90839 9.765882,4.893602 9.736178,4.898746 L9.73648,4.898802 Z M11.944,4.901302 C11.887136,4.904202 11.836936,4.9204984 11.794,4.94255 C11.68494,5.046974 11.659372,5.214378 11.745248,5.318798 C11.828828,5.3582688 11.912216,5.442394 11.856496,5.488798 C11.620148,5.741242 11.005016,6.163078 10.974016,6.240038 C10.973776,6.240666 10.9729,6.241962 10.972768,6.242538 C10.972688,6.24309 10.972774,6.244538 10.972768,6.245038 C10.9727868,6.245278 10.9727337,6.246062 10.972768,6.246286 C10.972968,6.246922 10.973624,6.24827 10.974016,6.248786 C10.974176,6.248946 10.975088,6.24989 10.975264,6.250034 C10.975464,6.250154 10.976292,6.249914 10.976512,6.250034 C10.976752,6.250154 10.977492,6.251194 10.97776,6.251282 C10.97804,6.251362 10.978692,6.251202 10.979008,6.251282 C10.979088,6.251362 10.980152,6.252442 10.980256,6.25253 C11.0115148,6.2734964 11.396416,6.2730004 11.439016,6.253778 C11.439336,6.253618 11.440008,6.252694 11.440264,6.25253 C11.440384,6.25245 11.441408,6.25261 11.441512,6.25253 C11.441592,6.25245 11.441432,6.251366 11.441512,6.251282 C11.573792,6.202538 12.201512,5.485042 12.201512,5.485042 C12.1689752,5.4571832 12.139008,5.43665 12.106512,5.408794 C12.0716776,5.3786368 12.0751852,5.34899 12.106512,5.318794 C12.261976,5.228322 12.212712,5.029266 12.131512,4.938794 C12.0642,4.908616 12.000876,4.898394 11.944012,4.901294 L11.944,4.901302 Z M17.714,4.903802 C17.6974752,4.905442 17.6773504,4.9308968 17.6465,4.996302 C17.572316,5.117818 17.521904,5.32943 17.527748,5.527542 C17.688452,6.640102 17.73772,7.613702 17.842748,8.726302 C17.8512956,8.83391 17.8355212,8.990222 17.763996,9.05255 C17.499432,9.328806 17.117956,9.66951 16.702756,9.82631 C16.658084,9.876466 16.813828,10.090262 17.015256,10.0900621 C17.352108,10.050954 17.648176,9.861894 17.922776,9.363822 C17.996196,9.247666 18.125236,8.999038 18.129024,8.806302 C18.154706,7.676422 18.072068,6.797942 17.902776,5.981302 C17.8919304,5.901758 17.899308,5.80767 17.912776,5.783802 C17.9345876,5.7577572 18.008548,5.784398 18.047776,5.72005 C18.105348,5.661266 17.894012,5.17385 17.774024,4.98629 C17.7500528,4.939186 17.73527,4.901682 17.714024,4.90379 L17.714,4.903802 Z M8.7752,4.937802 C8.728708,4.943238 8.684972,4.98109 8.663952,5.031554 C8.6561704,5.209998 8.655124,5.38835 8.675202,5.552794 C8.756362,5.841226 8.782062,6.094914 8.82145,6.390314 C8.8323756,6.78595 8.592982,6.561458 8.60395,6.365314 C8.659226,6.110546 8.644306,5.709474 8.5952,5.607794 C8.5562532,5.506154 8.511156,5.481062 8.416448,5.497794 C8.341256,5.493198 8.147004,5.704854 8.092696,6.055314 C8.0926964,6.0553136 8.047452,6.235174 8.027696,6.395314 C8.0011268,6.576298 7.881232,6.704466 7.797696,6.370314 C7.725488,6.127442 7.681108,5.529034 7.560196,5.669074 C7.5255632,6.136314 7.48444,6.958474 7.881444,7.042834 C8.361644,7.088998 8.096384,6.231074 8.270196,6.075314 C8.3030548,5.998346 8.363948,5.996978 8.368948,6.094064 L8.368948,6.822824 C8.3645536,7.059728 8.520456,7.130128 8.641448,7.179072 C8.76736,7.1693552 8.850848,7.1727972 8.9002,7.29532 C8.9198752,7.7154 8.940524,8.13652 8.9602,8.55656 C8.9602,8.55656 9.251292,8.640208 9.2652,7.8478 C9.2791504,7.38252 9.172548,6.99208 9.2352,6.90156 C9.237416,6.81262 9.35142,6.80822 9.4302,6.85156 C9.555708,6.940096 9.611392,7.049056 9.806448,7.005312 C10.103264,6.923548 10.282048,6.779476 10.286448,6.551552 C10.2691112,6.334968 10.244056,6.118152 10.1502,5.901552 C10.1633036,5.862162 10.093388,5.759692 10.106448,5.720304 C10.159788,5.80384 10.240484,5.796908 10.258948,5.720304 C10.208428,5.553832 10.12978,5.394328 10.0027,5.325304 C9.897672,5.232776 9.743984,5.252344 9.6877,5.445304 C9.6616144,5.667656 9.768284,5.931184 9.9302,6.146544 C9.9645908,6.230688 10.012696,6.370632 9.991448,6.496544 C9.905288,6.545692 9.819864,6.525244 9.747696,6.449044 C9.7476964,6.4490436 9.511448,6.272184 9.511448,6.232796 C9.57414,5.831396 9.5249516,5.785436 9.490198,5.674036 C9.4659272,5.520264 9.393054,5.471564 9.33395,5.366536 C9.274846,5.303884 9.19467,5.303884 9.15645,5.366536 C9.052026,5.54756 9.101018,5.936216 9.17645,6.110296 C9.230958,6.270396 9.31455,6.370296 9.275202,6.370296 C9.2427868,6.460768 9.175194,6.43972 9.12645,6.335296 C9.056862,6.119476 9.042698,5.797816 9.042698,5.652816 C9.0218132,5.47304 8.99853,5.089016 8.880198,4.991576 C8.8486244,4.948572 8.811358,4.9336 8.775198,4.937824 L8.7752,4.937802 Z M10.46144,4.940302 C10.4376104,4.943314 10.411268,4.95688 10.380192,4.964052 C10.278108,4.996548 10.182536,5.0848 10.212692,5.256552 C10.333364,5.989832 10.41202,6.549472 10.532692,7.282792 C10.5512392,7.368668 10.479252,7.481864 10.386444,7.470292 C10.22864,7.363532 10.189476,7.147308 9.920204,7.15654 C9.725268,7.15888 9.502964,7.371 9.475204,7.5753 C9.4427084,7.73766 9.431136,7.913704 9.475204,8.0553 C9.612204,8.220036 9.776312,8.202472 9.920204,8.1653 C10.038536,8.116596 10.135896,7.99998 10.177704,8.0278 C10.177824,8.02792 10.178848,8.02764 10.178952,8.0278 C10.179072,8.02796 10.178832,8.02888 10.178952,8.029048 C10.2047556,8.074152 10.17652,8.455568 9.621432,8.750288 C9.280308,8.903456 9.008792,8.940052 8.862672,8.661536 C8.77216,8.487484 8.8692568,7.824576 8.646424,7.977776 C7.987424,9.676456 10.190344,9.913576 10.436424,8.047776 C10.4523616,7.99514 10.500908,7.942328 10.535176,7.955276 C10.550212,7.9616792 10.5639752,7.9820968 10.568926,8.020276 C10.517842,9.709676 8.864686,9.825476 8.583926,9.294036 C8.514338,9.168768 8.493402,8.889916 8.486426,8.722796 C8.4736992,8.621696 8.4483312,8.56338 8.418926,8.540296 C8.351946,8.489968 8.261938,8.621216 8.242678,8.849048 C8.2148192,9.032372 8.222678,9.0827 8.222678,9.259048 C8.310854,10.593408 10.438198,10.020088 10.783918,8.9178 C10.955066,8.34796 10.780434,7.91808 10.83767,7.86532 C10.838166,7.864904 10.839642,7.864432 10.84017,7.864072 C10.840714,7.863752 10.84209,7.863104 10.84267,7.862824 C10.843266,7.862584 10.844538,7.861776 10.84517,7.861576 C10.847118,7.861056 10.8503884,7.860356 10.85267,7.860328 C11.063854,8.0878 11.36019,7.8892292 11.42515,7.810328 C11.4530092,7.7708572 11.522698,7.745536 11.571398,7.796578 C11.736134,7.91499 12.024878,7.859174 12.085158,7.65033 C12.119992,7.446122 12.149434,7.23589 12.156406,7.01785 C12.049098,7.0511668 11.962506,7.076114 11.927654,7.11285 C11.9193544,7.1219136 11.9132152,7.1319676 11.911404,7.14285 C11.9020908,7.203206 11.8932172,7.263746 11.883904,7.324098 C11.882908,7.3290872 11.881304,7.3336964 11.878904,7.337848 C11.8743304,7.3452564 11.8667696,7.3520884 11.858904,7.356598 C11.8209672,7.3773112 11.754816,7.3654664 11.751404,7.31035 C11.700364,7.078282 11.4903,7.048098 11.362652,7.40785 C11.276776,7.477438 11.120188,7.491022 11.1039,7.3866 C11.1247852,7.14526 11.027544,7.112864 10.832652,7.2266 C10.769996,6.74856 10.707844,6.29216 10.645152,5.81412 C10.726392,5.81178 10.800888,5.87068 10.875152,5.77787 C10.794784,5.527922 10.624724,5.01935 10.528904,4.97163 C10.528152,4.97127 10.527148,4.97067 10.526404,4.970382 C10.5220536,4.965162 10.516906,4.9603536 10.512654,4.956632 C10.510886,4.955132 10.508162,4.9529 10.506404,4.951632 C10.504648,4.950412 10.5019036,4.948884 10.500154,4.947884 C10.496306,4.945772 10.4914964,4.944052 10.487654,4.942884 C10.478918,4.940408 10.4704304,4.939244 10.461404,4.940384 L10.46144,4.940302 Z M17.03504,4.94405 C16.950736,4.94155 16.857452,4.994678 16.893792,5.100298 C16.8726256,5.15791 17.074924,5.353338 17.107544,5.460298 C17.166248,5.624634 17.062712,5.78139 17.123794,5.80405 C17.179998,5.8294096 17.258194,5.63439 17.287546,5.45405 C17.3214528,5.308262 17.217446,5.00949 17.070046,4.94781 C17.0587472,4.94515 17.0470896,4.944418 17.035046,4.944062 L17.03504,4.94405 Z M11.91384,5.12405 C11.9522316,5.120138 11.99862,5.1554128 12.02134,5.205298 C12.0455752,5.25851 12.0334196,5.309354 11.99384,5.31905 C11.9542608,5.3287444 11.903076,5.2935132 11.87884,5.240298 C11.8546056,5.187086 11.8667604,5.134994 11.90634,5.125298 C11.908812,5.12469 11.9112804,5.12431 11.91384,5.12405 Z M21.41384,5.370298 C21.33698,5.367606 21.253216,5.425962 21.28634,5.540298 C21.267068,5.60267 21.450376,5.814506 21.480092,5.930298 C21.5068224,6.012706 21.439412,6.278286 21.495092,6.302798 C21.546336,6.330254 21.618364,6.119306 21.645092,5.924046 C21.6599288,5.817166 21.58072,5.442086 21.44634,5.375286 C21.4360388,5.37241 21.42482,5.3706708 21.41384,5.370286 L21.41384,5.370298 Z M16.16144,5.500298 C16.16847,5.5316404 16.175496,5.563194 16.18019,5.595298 C16.1959428,5.664566 16.2095224,5.73337 16.223942,5.801546 C16.163266,5.717998 16.113042,5.650494 16.091442,5.626546 C15.95415,5.463386 16.094534,5.519402 16.161442,5.500298 L16.16144,5.500298 Z M17.37144,6.095298 C17.341736,6.1004436 17.313072,6.12617 17.302688,6.166546 C17.2961564,6.192994 17.3153864,6.235742 17.291438,6.249046 C17.27769,6.2629152 17.224262,6.2548428 17.226438,6.181546 C17.2264376,6.158202 17.2092996,6.132594 17.198938,6.117794 C17.1885368,6.11098 17.1815164,6.109044 17.162688,6.109044 C17.1397468,6.109972 17.1402668,6.1160224 17.127688,6.135294 C17.1223664,6.1549288 17.115188,6.1742888 17.115188,6.196542 C17.112324,6.2226276 17.1031292,6.2314616 17.083938,6.235292 C17.0624892,6.235292 17.0663148,6.237628 17.048938,6.226542 C17.0386164,6.2152536 17.026438,6.2108136 17.026438,6.191542 C17.0264384,6.1715848 17.0211952,6.139726 17.015188,6.126542 C17.006076,6.1145272 16.9916776,6.1095256 16.975188,6.105292 C16.88532,6.105612 16.880028,6.207636 16.885188,6.24654 C16.8784544,6.2538776 16.8738728,6.43816 16.996436,6.48904 C17.160972,6.567496 17.470756,6.53308 17.457676,6.267792 C17.4576764,6.2443272 17.4512644,6.165532 17.448926,6.14404 C17.4321336,6.104932 17.40113,6.090144 17.371426,6.095288 L17.37144,6.095298 Z M11.84664,6.150298 C11.826352,6.14823 11.799756,6.1556784 11.76914,6.174048 C11.623636,6.252748 11.567296,6.486204 11.657892,6.622808 C11.74252,6.743116 11.87632,6.699056 11.89414,6.699056 C12.0367,6.716876 12.12164,6.431556 12.12164,6.431556 C12.1216396,6.431556 12.1259328,6.351332 11.95664,6.502804 C11.8854,6.5161492 11.875712,6.49042 11.857888,6.450304 C11.8430508,6.37608 11.8462392,6.30082 11.880388,6.226552 C11.8961624,6.182028 11.880468,6.153748 11.846638,6.150304 L11.84664,6.150298 Z M19.65664,6.186548 C19.575864,6.18262 19.489888,6.234928 19.467888,6.3453 C19.468208,6.410412 19.4972832,6.446196 19.491638,6.5053 C19.483212,6.539086 19.448402,6.561304 19.36539,6.52155 C19.378372,6.509616 19.311638,6.415302 19.311638,6.415302 C19.246886,6.3758716 19.160422,6.417442 19.104138,6.454052 C19.073174,6.510336 19.05027,6.606808 19.085388,6.7053 C19.17832,6.877012 19.497108,7.17002 19.649148,7.17282 C19.651972,7.018 19.667012,6.81212 19.675398,6.68406 C19.678986,6.63572 19.690324,6.582444 19.736646,6.570308 C19.78293,6.5582128 19.863258,6.616876 19.864146,6.56656 C19.8557196,6.468064 19.8360344,6.32272 19.780394,6.25406 C19.7518944,6.211832 19.70511,6.188916 19.656642,6.18656 L19.65664,6.186548 Z M13.19184,6.725308 C13.189692,6.726096 13.1875648,6.727932 13.18559,6.729056 C13.184622,6.729644 13.182818,6.730852 13.181842,6.731556 C13.1657544,6.7436332 13.1467704,6.7715056 13.104342,6.801556 C13.032778,6.882956 13.01995,6.93964 13.024342,7.102804 C13.0284136,7.1200628 13.160202,7.48648 13.271842,7.744044 C13.347114,8.011752 13.416754,8.318284 13.365594,8.607804 C13.189366,8.99054 12.835074,9.333804 12.493114,9.520284 C12.318886,9.576084 12.168418,9.5570816 12.128114,9.519036 C12.127794,9.518716 12.127154,9.518092 12.126866,9.517788 C12.02681,9.450516 12.024514,9.330764 12.030618,9.310288 C12.030616,9.310168 12.0306248,9.30918 12.030618,9.30904 C12.030858,9.3088 12.031638,9.308008 12.031866,9.307792 C12.320418,9.106808 12.650026,8.944136 12.908106,8.401552 C12.984306,8.1942 13.00757,8.069696 12.931856,7.749072 C12.9023396,7.6296 12.86588,7.531288 12.784356,7.446572 C12.784556,7.446332 12.785392,7.445544 12.785604,7.445324 C12.834724,7.4218236 12.962168,7.515712 12.981852,7.456574 C12.9516948,7.30349 12.848008,7.097974 12.730604,6.992814 C12.627796,6.899438 12.515956,6.88863 12.421852,6.974064 C12.315856,7.033048 12.293312,7.244892 12.344352,7.430304 C12.40104,7.569884 12.554084,7.594372 12.663104,7.875304 C12.663102,7.875584 12.6630944,7.87646 12.663104,7.876552 C12.665376,7.8941664 12.7005184,8.086248 12.645604,8.164052 C12.60104,8.30302 12.028644,8.754412 11.988084,8.781572 C11.987636,8.78202 11.984768,8.783648 11.984336,8.784072 C11.984096,8.784312 11.9833,8.785112 11.983088,8.78532 C11.982968,8.7854 11.982104,8.7863 11.98184,8.786568 C11.98172,8.786688 11.980704,8.787688 11.980592,8.787816 C11.980472,8.787816 11.97948,8.7878228 11.979344,8.787816 C11.979264,8.7878132 11.97838,8.7878116 11.978096,8.787816 C11.977856,8.787616 11.977068,8.7868 11.976848,8.786568 C11.9768576,8.786448 11.9768452,8.785432 11.976848,8.78532 C11.976608,8.784888 11.975824,8.783272 11.9756,8.78282 C11.973876,8.77155 11.976904,8.7428568 11.9756,8.696572 C11.97184,8.611996 12.0068456,8.420656 12.00435,8.38782 C12.0043512,8.3877 12.0043464,8.386696 12.00435,8.386572 C12.00411,8.386332 12.003334,8.385544 12.003102,8.385324 C12.0031036,8.385204 12.0030956,8.384212 12.003102,8.384076 C12.002822,8.3840816 12.001894,8.3840796 12.001854,8.384076 C11.812646,8.50624 11.750158,8.880716 11.715606,8.991596 C11.236606,9.32256 10.692646,9.568796 10.379366,9.904076 C10.216202,10.158884 11.503526,9.611488 11.653126,9.545324 C11.65441,9.546288 11.65569,9.547844 11.656874,9.549072 C11.6853096,9.5803668 11.6877384,9.689484 11.773122,9.787824 C11.906934,9.969092 12.191362,10.08072 12.468122,10.011576 C12.932242,9.843816 13.199642,9.527496 13.471882,9.176576 C13.5107884,9.119972 13.57177,9.075372 13.62813,9.119076 C13.815202,9.537876 14.35457,9.835876 15.05189,9.866596 C15.213242,9.670372 15.136074,9.573888 15.07064,9.532844 C15.0504836,9.5194492 14.723848,9.392108 14.67314,9.265344 C14.6412084,9.147376 14.718844,9.042752 14.874388,8.964096 C15.322108,8.909948 15.762228,8.849804 16.188148,8.712848 C16.1924616,8.56976 16.276744,8.35578 16.333148,8.262848 C16.3723116,8.198368 16.397492,8.191984 16.4069,8.182848 C16.40722,8.182528 16.407884,8.181928 16.408148,8.1816 C16.408268,8.18144 16.409284,8.180524 16.409396,8.180352 C16.409636,8.180152 16.41042,8.179324 16.410644,8.179104 C16.4106448,8.178676 16.4106608,8.177048 16.410644,8.176604 C16.410884,8.173772 16.4106244,8.1688952 16.409396,8.164104 L16.336896,8.121604 L14.908136,8.115354 C14.8904864,8.1085592 14.8773636,8.1017392 14.869386,8.095354 C14.868778,8.094846 14.86743,8.093358 14.866886,8.092854 C14.866646,8.092614 14.865874,8.091854 14.865638,8.091606 C14.865398,8.091366 14.864594,8.090602 14.86439,8.090358 C14.86419,8.089922 14.863338,8.088294 14.863142,8.087858 C14.863022,8.087738 14.862034,8.086742 14.861894,8.08661 C14.8618964,8.08649 14.8618824,8.085494 14.861894,8.085362 C14.861774,8.085242 14.86079,8.084246 14.860646,8.084114 C14.8606468,8.083994 14.8606388,8.082998 14.860646,8.082866 C14.8606464,8.082746 14.8606408,8.08175 14.860646,8.081618 C14.860646,8.081498 14.8606428,8.080502 14.860646,8.08037 C14.8606328,8.08017 14.8606508,8.07931 14.860646,8.079122 C14.8606512,8.079042 14.8606496,8.078138 14.860646,8.077874 C14.860644,8.077754 14.86065,8.076758 14.860646,8.076626 C14.8606436,8.076506 14.8606516,8.07551 14.860646,8.075378 C14.8606432,8.075258 14.8606536,8.074262 14.860646,8.07413 C14.860886,8.07389 14.861662,8.073106 14.861894,8.072882 C14.862214,8.072222 14.86271,8.071034 14.863142,8.070382 C14.8701176,8.0609816 14.8870228,8.0521212 14.908142,8.044132 C15.24931,7.997648 15.855422,7.898292 15.895662,7.315372 C15.8893724,7.01174 15.765734,6.812932 15.393182,6.757852 C15.119426,6.7790192 14.924182,7.043816 14.955662,7.335372 C14.9425592,7.413868 14.9822244,7.567916 14.90191,7.585372 C14.37679,7.633348 13.80363,7.962376 13.78439,8.197852 C13.78427,8.1978312 13.78325,8.1978576 13.783142,8.197852 C13.782942,8.198092 13.78211,8.198876 13.781894,8.1991 C13.78149,8.1993 13.780054,8.200024 13.779394,8.200348 C13.778958,8.200342 13.777334,8.200364 13.776894,8.200348 C13.77605,8.200628 13.774006,8.201376 13.773146,8.201596 C13.772906,8.2016176 13.772218,8.2015916 13.771898,8.201596 C13.771186,8.2015848 13.76987,8.201596 13.769398,8.201596 C13.769158,8.2015884 13.76847,8.201588 13.76815,8.201596 C13.767622,8.2016092 13.766086,8.2016172 13.76565,8.201596 C13.764294,8.201316 13.761826,8.200644 13.76065,8.200348 C13.7264964,8.1908624 13.682498,8.1345 13.689402,8.055348 C13.6694044,7.648268 13.536914,7.187628 13.329402,6.832868 C13.25535,6.758836 13.223086,6.728836 13.201902,6.725368 C13.201218,6.725308 13.200066,6.7254 13.199402,6.725368 C13.19853,6.7253644 13.196778,6.725378 13.195654,6.725368 C13.195454,6.7253736 13.194598,6.725352 13.194406,6.725368 C13.194286,6.7253644 13.193274,6.725378 13.193158,6.725368 C13.192998,6.725408 13.192062,6.725308 13.19191,6.725368 L13.19184,6.725308 Z M14.55936,6.940308 C14.529656,6.9454536 14.500992,6.96993 14.490608,7.010308 C14.4840772,7.0367564 14.5033064,7.080752 14.479358,7.09406 C14.4656096,7.1079292 14.412182,7.0998572 14.414358,7.02656 C14.414358,7.0032164 14.3972196,6.977608 14.386858,6.962808 C14.3764564,6.9559944 14.3706864,6.954058 14.351858,6.954058 C14.3289172,6.954986 14.3281868,6.961036 14.315608,6.980308 C14.3102856,6.999942 14.303108,7.0193028 14.303108,7.041556 C14.300244,7.0676416 14.2910492,7.076476 14.271858,7.080306 C14.2504088,7.080306 14.2554848,7.082642 14.238108,7.071556 C14.2277868,7.0602672 14.214358,7.055828 14.214358,7.036556 C14.2143576,7.0165988 14.210366,6.98474 14.204358,6.971556 C14.1952464,6.9595416 14.1795976,6.9545392 14.16311,6.950306 C14.073242,6.950626 14.06795,7.05265 14.07311,7.091554 C14.0663768,7.098892 14.0617948,7.283174 14.184358,7.334054 C14.348894,7.41251 14.740998,7.36632 14.645598,7.112806 C14.6455976,7.0893412 14.6391864,7.010546 14.636848,6.989054 C14.620056,6.949946 14.589052,6.935158 14.559348,6.940302 L14.55936,6.940308 Z M20.07816,7.166556 C20.074024,7.165812 20.0692656,7.1661 20.06441,7.167804 C20.06441,7.167804 19.30205,7.710164 19.28317,7.729044 C19.207574,7.796252 19.2453932,8.032588 19.28317,8.005292 C19.337802,8.0262972 20.10533,7.506172 20.09069,7.445292 C20.1241408,7.447256 20.14023,7.177724 20.07819,7.16654 L20.07816,7.166556 Z M15.27976,7.246956 C15.3108748,7.243656 15.351688,7.2542132 15.391008,7.276956 C15.44792,7.3098732 15.483,7.359584 15.478508,7.395708 C15.478348,7.396688 15.478708,7.3985 15.478508,7.399456 C15.478268,7.400408 15.476292,7.402276 15.476008,7.403204 C15.475688,7.404124 15.475124,7.406056 15.47476,7.406952 C15.47452,7.407544 15.473796,7.408872 15.473512,7.409452 C15.473232,7.410028 15.472588,7.411388 15.472264,7.411952 C15.4704,7.415004 15.4673208,7.4182072 15.464764,7.420702 C15.437406,7.4462528 15.37426,7.4426156 15.314764,7.408202 C15.258372,7.3755844 15.223524,7.325482 15.227264,7.28945 C15.227384,7.288466 15.228332,7.286666 15.228512,7.285702 C15.229456,7.2812308 15.231228,7.2771524 15.233512,7.273202 C15.234328,7.27179 15.235048,7.269498 15.236012,7.268202 C15.236212,7.267962 15.237056,7.267202 15.23726,7.266954 C15.23894,7.264994 15.2414788,7.2623704 15.24351,7.260704 C15.2525784,7.2535724 15.2654308,7.248474 15.27976,7.246954 L15.27976,7.246956 Z M8.60336,7.384448 C8.208328,7.3916732 7.62984,7.902256 7.6146,8.185696 C8.03144,7.98552 8.44088,7.792848 8.8646,7.585696 C8.79622,7.483612 8.8604548,7.391624 8.603352,7.384448 L8.60336,7.384448 Z M9.88336,7.56195562 C9.9220836,7.562392 9.962924,7.5815132 9.984608,7.635708 C10.0041216,7.68542 9.985532,7.737404 9.962108,7.763208 C9.961988,7.763408 9.962228,7.76426 9.962108,7.764456 C9.961748,7.765032 9.961248,7.766416 9.96086,7.766956 C9.94428,7.7883176 9.886072,7.779456 9.844612,7.779456 C9.794456,7.77724 9.769728,7.7690072 9.739612,7.728208 C9.7252192,7.682852 9.7690496,7.638284 9.788364,7.604456 C9.788564,7.604136 9.789416,7.60352 9.789612,7.603208 C9.791708,7.600056 9.7951324,7.5962776 9.798362,7.593208 C9.813362,7.5794692 9.839302,7.5666268 9.867114,7.563208 C9.8725216,7.562544 9.877832,7.561896 9.883364,7.56195562 L9.88336,7.56195562 Z M19.92976,7.719156 C19.85952,7.7278176 19.792752,7.794236 19.823512,7.900404 C19.80424,7.962776 19.9188,8.180864 19.948512,8.296652 C19.9752428,8.37906 19.9140836,8.61214 19.969762,8.636652 C20.021006,8.6641084 20.15577,8.49828 20.15101,8.290404 C20.1658468,8.183524 20.1128884,7.789724 19.97851,7.722884 C19.9630584,7.7185676 19.9459688,7.7171352 19.929758,7.719136 L19.92976,7.719156 Z M11.39736,8.104156 C11.33528,8.1084952 11.279884,8.1416772 11.30486,8.229156 C11.301112,8.292616 11.480264,8.36978 11.491108,8.516656 C11.5167096,8.577212 11.452808,8.771136 11.506108,8.789156 C11.555052,8.8093144 11.622968,8.655104 11.648608,8.511656 C11.6627996,8.433076 11.58714,8.158224 11.458608,8.109176 C11.4388828,8.1049324 11.418052,8.1027296 11.39736,8.104176 L11.39736,8.104156 Z M13.95112,8.452908 C13.9558308,8.452588 13.9599844,8.4529368 13.96487,8.452908 C13.96569,8.4529028 13.966546,8.4529044 13.96737,8.452908 C14.126542,8.496168 14.361186,8.500652 14.56489,8.52166 C14.730798,8.5321828 14.812774,8.662072 14.65739,8.71666 C14.504102,8.769156 14.356826,8.810156 14.356142,9.03166 C14.3762924,9.141384 14.372024,9.198964 14.354894,9.225412 C14.353554,9.227396 14.351382,9.2300328 14.349894,9.231662 C14.349694,9.231902 14.348862,9.232694 14.348646,9.23291 C14.348406,9.23311 14.347622,9.233954 14.347398,9.234158 C14.347158,9.234358 14.346378,9.235218 14.34615,9.235406 L14.344902,9.236654 C14.344462,9.236854 14.342846,9.23769 14.342402,9.237902 C14.340174,9.239286 14.3373296,9.240762 14.334902,9.24165 C14.332758,9.242378 14.329682,9.242518 14.327402,9.242898 C14.290964,9.248242 14.238042,9.2134936 14.19865,9.192898 C14.104146,9.125042 13.838926,8.960674 13.80115,8.607898 C13.7957748,8.52829 13.855366,8.459642 13.95115,8.452898 L13.95112,8.452908 Z M7.71352,8.724156 C7.7035768,8.724476 7.683678,8.7541804 7.657272,8.787908 C7.42226,9.162296 7.40136,9.721148 7.531024,9.887908 C7.599928,9.966688 7.713536,10.001332 7.797272,9.97666 C7.944916,9.912636 8.009808,9.61358 7.974772,9.50418 C7.925504,9.427052 7.88646,9.414832 7.837272,9.48043 C7.733376,9.69137 7.690136,9.54707 7.681024,9.429182 C7.6650984,9.205622 7.6867528,8.999742 7.711024,8.836702 C7.7239456,8.753142 7.7234672,8.72389 7.713524,8.724202 L7.71352,8.724156 Z M15.71992,9.215756 C15.7024444,9.21482 15.6838088,9.217552 15.66492,9.227006 C15.661212,9.227006 15.496688,9.338266 15.443672,9.415758 C15.4113372,9.440352 15.4150036,9.46173 15.424922,9.50451 C15.4501204,9.562446 15.494526,9.5442644 15.544922,9.51701 C15.61181,9.507898 15.644154,9.551698 15.638674,9.63201 C15.6077908,9.732158 15.6524236,9.76947 15.652424,9.775762 C15.652424,9.7820516 15.716828,9.83733 15.792424,9.793262 C15.952,9.732342 16.051444,9.673094 16.274904,9.62451 C16.333568,9.623342 16.330176,9.466366 16.237404,9.460758 C16.116372,9.466846 16.004688,9.4730284 15.883652,9.568258 C15.809184,9.5854736 15.796432,9.540148 15.7799,9.499506 C15.7609912,9.398674 15.82248,9.327602 15.8099,9.252006 C15.813256,9.25533 15.7723272,9.2185644 15.7199,9.215756 L15.71992,9.215756 Z M20.84632,9.407004 C20.8166312,9.407932 20.785368,9.4120448 20.740072,9.415754 C20.691088,9.4261564 20.673984,9.4476164 20.665072,9.507002 C20.66858,9.59707 20.723668,9.59261 20.780072,9.62825 C20.81273,9.669818 20.833976,9.70745 20.777572,9.77575 C20.724112,9.824734 20.686032,9.851766 20.632572,9.90075 C20.607332,9.94381 20.591612,10.009946 20.668822,10.03075 C20.811382,10.070826 21.141302,9.856474 21.141302,9.851998 C21.194762,9.811922 21.1770272,9.73575 21.172552,9.73575 C21.1413872,9.7001092 21.071056,9.7215156 21.0238,9.71575 C21.0013024,9.71575 20.927432,9.7048144 20.962552,9.639502 C20.9918632,9.598862 21.002676,9.574574 21.022552,9.524502 C21.0448072,9.475518 21.025244,9.442482 20.945052,9.41575 C20.904212,9.4083316 20.875992,9.4060728 20.8463,9.407 L20.84632,9.407004 Z M18.70472,13.743004 C18.7044,13.743164 18.703784,13.744036 18.703472,13.744252 C18.466364,13.805092 18.47374,14.051248 18.625972,14.159252 C16.122212,14.159252 12.279972,14.116752 11.455972,14.116752 C10.994972,14.116752 9.536492,14.061752 9.508452,14.061752 C9.821236,14.519232 10.274332,14.612392 10.867212,14.621752 C11.979292,14.621752 17.132012,14.608002 18.598412,14.608002 C18.494164,14.793102 18.60787,15.090962 18.68966,15.145522 C18.691396,15.146638 18.6942076,15.148382 18.69591,15.14927 C18.698962,15.15079 18.7029872,15.152266 18.70591,15.153018 C18.706878,15.153258 18.70871,15.152898 18.709658,15.153018 C18.806742,15.175918 18.849462,15.105634 18.882158,15.054266 C19.039646,15.0681472 19.926038,15.0809688 20.007158,15.053018 C20.007438,15.052898 20.008138,15.051882 20.008406,15.05177 C20.063278,15.132526 20.117734,15.208826 20.222158,15.195522 C20.404918,15.1563332 20.548854,15.136442 20.553406,14.765522 C20.553406,14.765522 20.5347244,14.133442 20.119646,14.173042 C20.021434,14.1878788 19.745894,14.215542 19.745894,14.215542 C19.427022,14.1776032 19.193134,14.173726 18.834654,14.160542 C18.8677432,14.118534 18.926166,13.948406 18.854654,13.88679 C18.8360052,13.8712832 18.808186,13.8626492 18.769654,13.86554 C18.769374,13.86556 18.768678,13.8655368 18.768406,13.86554 C18.767862,13.8655128 18.766438,13.86562 18.765906,13.86554 C18.765626,13.86546 18.764914,13.864368 18.764658,13.864292 C18.76363,13.863932 18.76189,13.863648 18.76091,13.863044 C18.758966,13.861724 18.7564408,13.8589264 18.75466,13.856794 C18.75422,13.856238 18.752592,13.854894 18.75216,13.854294 C18.7340312,13.8278992 18.7241328,13.763186 18.71216,13.746794 C18.712,13.746634 18.711052,13.74571 18.710912,13.745546 C18.710752,13.745426 18.709808,13.744418 18.709664,13.744298 C18.709228,13.744018 18.707608,13.74319 18.707164,13.74305 C18.707004,13.7430356 18.706064,13.7430476 18.705916,13.74305 C18.705756,13.7430864 18.70482,13.743004 18.704668,13.74305 L18.70472,13.743004 Z M18.87472,14.646764 C18.875156,14.646564 18.875528,14.646964 18.875968,14.646764 C19.241244,14.6645844 19.584448,14.650192 19.949728,14.668014 C20.00762,14.717226 19.978666,14.82995 19.940978,14.850514 C19.93929,14.851358 19.9364424,14.852554 19.934728,14.853014 C19.933352,14.853334 19.931108,14.852974 19.929728,14.853014 C19.928348,14.852986 19.926108,14.853334 19.924728,14.853014 C19.805952,14.85003 19.737252,14.8472472 19.61848,14.844264 C19.61828,14.8383552 19.61762,14.8319812 19.61598,14.826764 C19.5878316,14.74334 19.383948,14.74892 19.33598,14.814264 C19.335316,14.815204 19.33408,14.817048 19.33348,14.818012 C19.332712,14.819312 19.331628,14.821672 19.33098,14.823012 C19.330208,14.8247 19.329052,14.8275072 19.32848,14.829262 C19.327732,14.831738 19.327564,14.8354108 19.327232,14.838012 C19.326912,14.841004 19.325716,14.8448572 19.325984,14.848012 C19.16564,14.867284 19.021328,14.8426884 18.860984,14.836762 C18.81394,14.778198 18.819432,14.672226 18.874734,14.646762 L18.87472,14.646764 Z"/>
    </g>
  </g>
</svg>
